<svg width="163" height="56" viewBox="0 0 163 56" fill="none" xmlns="http://www.w3.org/2000/svg">
<g clip-path="url(#clip0_72_1142)">
<path fill-rule="evenodd" clip-rule="evenodd" d="M13.0394 33.9085H6.83346C6.49723 33.9085 6.20823 34.0665 6.02762 34.349C5.84701 34.6318 5.82544 34.9595 5.96755 35.2632L13.3158 50.969C13.4809 51.3216 13.6661 51.6591 13.8692 51.9802C14.0997 52.3444 14.5278 52.5067 14.9427 52.3871C15.3578 52.2676 15.633 51.9029 15.633 51.4724V36.4934C15.633 35.0697 14.468 33.9086 13.0395 33.9086L13.0394 33.9085ZM30.71 0.374066L5.29113 12.1873C0.719005 14.3122 -1.27737 19.7788 0.8547 24.3355L1.18206 25.0352C1.34274 25.3785 1.66805 25.5851 2.04797 25.5851H20.5113C21.9398 25.5851 23.1048 26.7465 23.1048 28.1699V55.0447C23.1048 55.3666 23.2506 55.644 23.5161 55.8273C23.7817 56.0107 24.0933 56.0493 24.3957 55.9364C26.5816 55.1199 30.1746 53.2573 32.1994 52.2837C32.5375 52.1211 32.7397 51.8004 32.7397 51.4261V36.4933C32.7397 35.0696 31.5747 33.9085 30.1462 33.9085H28.4637C27.0352 33.9085 25.8702 32.7474 25.8702 31.3237C25.8702 30.2725 25.8702 29.2212 25.8702 28.1699C25.8702 26.7462 27.0352 25.5851 28.4637 25.5851H30.1462C31.5747 25.5851 32.7397 24.424 32.7397 23.0003V0.955706C32.7397 0.633117 32.5936 0.355698 32.3274 0.172431C32.0611 -0.0109731 31.7492 -0.0490689 31.4465 0.0649462C31.1991 0.158009 30.9534 0.261139 30.71 0.374338V0.374066ZM19.2157 23.4788C16.9095 23.4788 15.0399 21.6156 15.0399 19.3172C15.0399 17.0188 16.9095 15.1555 19.2157 15.1555C21.5218 15.1555 23.3914 17.0188 23.3914 19.3172C23.3914 21.6156 21.5218 23.4788 19.2157 23.4788Z" fill="#1A3560"/>
<path fill-rule="evenodd" clip-rule="evenodd" d="M41.0913 36.4933V46.6519C41.0913 46.987 41.2498 47.275 41.5335 47.455C41.817 47.635 42.1459 47.6565 42.4506 47.5149L52.2278 42.9709C55.4833 41.458 57.433 38.2506 57.5162 34.8841C57.5228 34.6177 57.4315 34.3863 57.2449 34.1956C57.0582 34.0048 56.8281 33.9082 56.5608 33.9082H43.6848C42.2563 33.9082 41.0913 35.0693 41.0913 36.493V36.4933Z" fill="#37B5E8"/>
<path fill-rule="evenodd" clip-rule="evenodd" d="M43.6848 25.585H52.7136C53.0498 25.585 53.3388 25.427 53.5194 25.1445C53.7 24.8617 53.7216 24.534 53.5795 24.2303L44.8111 5.4891C44.2791 4.35208 43.5666 3.35316 42.7232 2.51056C42.4443 2.23192 42.0465 2.1526 41.6816 2.30294C41.3167 2.45342 41.0912 2.78948 41.0912 3.18295V23.0001C41.0912 24.4238 42.2562 25.5849 43.6847 25.5849L43.6848 25.585Z" fill="#37B5E8"/>
<path d="M69.7606 19.0695V7.60365H72.199V19.0695H69.7606ZM79.5305 19.0695H77.0921V9.62694H73.9689V7.60352H82.6537V9.62694H79.5305V19.0695ZM74.1972 33.4464H71.7588V24.0039H68.6356V21.9804H77.3204V24.0039H74.1972V33.4464ZM85.0115 33.4464L84.1764 30.7165H79.9817L79.1492 33.4464H76.5202L80.5806 21.9324H83.5615L87.6379 33.4464H85.0117H85.0115ZM83.5936 28.677C82.823 26.204 82.3879 24.8041 82.2911 24.4803C82.1944 24.1564 82.1247 23.8995 82.0843 23.7122C81.9098 24.3814 81.4129 26.0353 80.5966 28.6771H83.5936V28.677ZM87.9493 25.9149L87.8366 25.7409C87.9521 25.2644 88.1428 24.6677 88.4086 23.9477C88.6745 23.2277 88.9457 22.572 89.2222 21.9804H90.9464C90.5999 23.3775 90.3339 24.6889 90.1514 25.9148H87.9493V25.9149ZM92.5791 33.4464V21.9806H95.0175V31.4392H99.6847V33.4466H92.5791V33.4464ZM101.683 33.4464V21.9806H104.121V33.4464H101.683ZM111.888 33.4464L109.116 24.4508H109.046C109.146 26.2816 109.197 27.502 109.197 28.1123V33.4464H107.016V21.9806H110.338L113.058 30.7486H113.107L115.996 21.9806H119.316V33.4464H117.041V28.0186C117.041 27.7643 117.046 27.4672 117.054 27.1327C117.062 26.7982 117.097 25.9096 117.159 24.467H117.089L114.122 33.4466H111.887L111.888 33.4464ZM79.1251 36.3573V43.7791C79.1251 44.6248 78.9344 45.3689 78.5557 46.006C78.1743 46.6458 77.6266 47.1327 76.9067 47.4727C76.187 47.8126 75.3384 47.9839 74.3556 47.9839C72.8786 47.9839 71.7293 47.6065 70.9101 46.8492C70.0911 46.0943 69.6828 45.0613 69.6828 43.7471V36.3575H72.1132V43.3777C72.1132 44.2636 72.2931 44.9113 72.6476 45.3236C73.0049 45.7384 73.5956 45.9445 74.4201 45.9445C75.2176 45.9445 75.7949 45.7358 76.1549 45.3209C76.5148 44.906 76.6947 44.2531 76.6947 43.3644V36.3575H79.1251V36.3573ZM85.5191 41.0786L87.9198 36.3573H90.5462L86.7303 43.3615V47.8232H84.308V43.4392L80.492 36.3573H83.1345L85.5191 41.0786ZM101.358 36.3573V43.7791C101.358 44.6248 101.167 45.3689 100.789 46.006C100.407 46.6458 99.8596 47.1327 99.1398 47.4727C98.4201 47.8126 97.5715 47.9839 96.5886 47.9839C95.1117 47.9839 93.9623 47.6065 93.1431 46.8492C92.3242 46.0943 91.9159 45.0613 91.9159 43.7471V36.3575H94.3462V43.3777C94.3462 44.2636 94.5261 44.9113 94.8807 45.3236C95.2379 45.7384 95.8286 45.9445 96.6532 45.9445C97.4507 45.9445 98.028 45.7358 98.388 45.3209C98.7478 44.906 98.9278 44.2531 98.9278 43.3644V36.3575H101.358V36.3573ZM110.967 44.6437C110.967 45.6795 110.591 46.4931 109.844 47.0899C109.098 47.6869 108.056 47.9838 106.724 47.9838C105.496 47.9838 104.409 47.7535 103.466 47.2933V45.0342C104.242 45.3795 104.9 45.623 105.437 45.7649C105.974 45.9069 106.466 45.9764 106.912 45.9764C107.449 45.9764 107.86 45.8747 108.144 45.6713C108.432 45.4678 108.574 45.1628 108.574 44.7614C108.574 44.5365 108.512 44.3357 108.386 44.1618C108.26 43.9851 108.074 43.8165 107.83 43.6558C107.586 43.4925 107.089 43.2329 106.34 42.8797C105.636 42.5479 105.107 42.232 104.755 41.9297C104.403 41.6272 104.124 41.2739 103.915 40.8698C103.702 40.4683 103.598 39.9974 103.598 39.4593C103.598 38.445 103.944 37.6473 104.634 37.0666C105.325 36.4858 106.278 36.1968 107.494 36.1968C108.093 36.1968 108.662 36.2665 109.208 36.4084C109.75 36.5501 110.317 36.7482 110.91 37.0052L110.123 38.8948C109.508 38.6432 109.001 38.4692 108.601 38.3702C108.198 38.2711 107.803 38.2202 107.417 38.2202C106.955 38.2202 106.6 38.3273 106.353 38.5415C106.106 38.7556 105.983 39.0367 105.983 39.3819C105.983 39.596 106.034 39.7834 106.133 39.9413C106.232 40.1019 106.391 40.2544 106.608 40.4043C106.826 40.5543 107.342 40.8219 108.155 41.2072C109.232 41.7211 109.968 42.235 110.368 42.7489C110.765 43.2655 110.967 43.8943 110.967 44.6438L110.967 44.6437ZM122.471 47.8233H120.041V42.8772H115.486V47.8233H113.048V36.3575H115.486V40.8539H120.041V36.3575H122.471V47.8233ZM130.248 47.8233L127.477 38.8277H127.407C127.506 40.6585 127.557 41.8789 127.557 42.4893V47.8233H125.377V36.3575H128.699L131.419 45.1255H131.467L134.357 36.3575H137.676V47.8233H135.402V42.3955C135.402 42.1412 135.407 41.8441 135.415 41.5097C135.423 41.1751 135.458 40.2865 135.52 38.8439H135.45L132.482 47.8235H130.248L130.248 47.8233ZM147.613 47.8233L146.777 45.0934H142.583L141.75 47.8233H139.121L143.182 36.3093H146.163L150.239 47.8233H147.613H147.613ZM146.195 43.0539C145.424 40.5809 144.989 39.1811 144.892 38.8572C144.795 38.5333 144.726 38.2764 144.685 38.0891C144.511 38.7583 144.014 40.4122 143.198 43.054H146.195V43.0539ZM158.481 44.6437C158.481 45.6795 158.105 46.4931 157.358 47.0899C156.611 47.6869 155.57 47.9838 154.238 47.9838C153.01 47.9838 151.923 47.7535 150.98 47.2933V45.0342C151.756 45.3795 152.414 45.623 152.951 45.7649C153.488 45.9069 153.98 45.9764 154.426 45.9764C154.963 45.9764 155.374 45.8747 155.658 45.6713C155.946 45.4678 156.088 45.1628 156.088 44.7614C156.088 44.5365 156.026 44.3357 155.9 44.1618C155.774 43.9851 155.588 43.8165 155.344 43.6558C155.1 43.4925 154.603 43.2329 153.854 42.8797C153.15 42.5479 152.621 42.232 152.269 41.9297C151.917 41.6272 151.638 41.2739 151.429 40.8698C151.216 40.4683 151.112 39.9974 151.112 39.4593C151.112 38.445 151.458 37.6473 152.148 37.0666C152.838 36.4858 153.792 36.1968 155.008 36.1968C155.607 36.1968 156.176 36.2665 156.722 36.4084C157.264 36.5501 157.831 36.7482 158.424 37.0052L157.637 38.8948C157.022 38.6432 156.515 38.4692 156.115 38.3702C155.712 38.2711 155.317 38.2202 154.931 38.2202C154.469 38.2202 154.114 38.3273 153.867 38.5415C153.62 38.7556 153.496 39.0367 153.496 39.3819C153.496 39.596 153.548 39.7834 153.647 39.9413C153.746 40.1019 153.905 40.2544 154.122 40.4043C154.34 40.5543 154.855 40.8219 155.669 41.2072C156.746 41.7211 157.482 42.235 157.882 42.7489C158.279 43.2655 158.481 43.8943 158.481 44.6438L158.481 44.6437ZM160.562 47.8233V36.3575H163V47.8233H160.562Z" fill="#1A3560"/>
</g>
<defs>
<clipPath id="clip0_72_1142">
<rect width="163" height="56" fill="white"/>
</clipPath>
</defs>
</svg>
